<svg xmlns="http://www.w3.org/2000/svg" viewBox="0 0 242.6 194.5"><style type="text/css">
	.st0{fill:#fcb715;}
	.st1{fill:#434343;}
</style><polygon class="st0" points="25 159.8 83.2 159.8 83.2 75.7 47.5 75.7 "/><polygon class="st0" points="145.6 7.5 109.4 142.4 235.1 142.4 235.1 7.5 "/><path class="st1" d="M52.4 54.6H38.3c-2.1 0-3.7 1.7-3.7 3.7 0 2.1 1.7 3.7 3.7 3.7h14.1c2.1 0 3.7-1.7 3.7-3.7C56.1 56.3 54.5 54.6 52.4 54.6z"/><circle class="st1" cx="65.4" cy="58.3" r="3.7"/><path class="st1" d="M238.9 0H45.3c-2.1 0-3.7 1.7-3.7 3.7V41H19.5C7.7 41 0 48.6 0 60.5V175c0 11.7 7.8 19.5 19.5 19.5h51.7c11.9 0 19.5-7.7 19.5-19.5v-25.2h37.6V187h-17.7c-2.1 0-3.7 1.7-3.7 3.7 0 2.1 1.7 3.7 3.7 3.7h63c2.1 0 3.7-1.7 3.7-3.7 0-2.1-1.7-3.7-3.7-3.7h-17.7v-37.2h82.9c2.1 0 3.7-1.7 3.7-3.7V3.7C242.6 1.7 240.9 0 238.9 0zM83.2 175c0 7.7-4.4 12-12 12H19.5c-7.7 0-12-4.4-12-12v-7.7h75.8V175zM83.2 159.8H25 7.5V75.7h40 35.7V159.8zM83.2 68.2H7.5v-7.7c0-7.6 4.4-12 12-12h51.7c7.7 0 12 4.4 12 12V68.2zM148.5 187.1h-12.7v-37.2h12.7V187.1zM235.1 142.4H109.4 90.7V60.5c0-11.7-7.8-19.5-19.5-19.5H49.1V7.5h96.5 89.6V142.4z"/><circle class="st1" cx="45.3" cy="177.2" r="3.7"/></svg>
