<svg xmlns="http://www.w3.org/2000/svg" viewBox="0 0 179.2 194.5"><style type="text/css">
	.st0{fill:#434343;}
	.st1{fill:#fcb715;}
</style><path class="st0" d="M178.8 135L165.4 112l0-44.6c0-0.5-0.7-2.4-1.9-3l-76.3-44c-0.5-0.3-1.1-0.5-1.8-0.5 -21.5 0-41.4 8-55.7 22.2 -6.2 6.2-11.3 13.5-15 21.9V19.7c3.9-1.4 6.8-5.1 6.8-9.6C21.6 4.5 17.1 0 11.5 0 5.9 0 1.4 4.5 1.4 10.1c0 4.4 2.8 8.2 6.8 9.6v66.1H3.4c-1.9 0-3.4 1.5-3.4 3.4v16.2c0 1.9 1.5 3.4 3.4 3.4h4.7v66.1c-3.9 1.4-6.8 5.1-6.8 9.6 0 5.6 4.5 10.1 10.1 10.1 5.6 0 10.1-4.5 10.1-10.1 0-4.4-2.8-8.2-6.8-9.6v-44.2c4 9 9.5 16.8 16.3 23.2 13.4 12.7 31.4 20.1 51 20.8v4.8c0 1.9 1.5 3.4 3.4 3.4h16.2c1.9 0 3.4-1.5 3.4-3.4v-16.2c0-1.9-1.5-3.4-3.4-3.4H85.6c-1.9 0-3.4 1.5-3.4 3.4v4.7c-17.9-0.8-34.2-7.4-46.4-18.9 -10.5-10-17.9-23.6-20.2-40.2h4c1.9 0 3.4-1.5 3.4-3.4V89.1c0-1.9-1.5-3.4-3.4-3.4h-3.9c2.2-15.9 9.1-29.1 19-39 12.2-12.2 29.1-19.4 47.6-20.1l0 84.8c0 1.4 0.9 2.4 2 3.1l38.4 22.2 13.3 23.1c0.9 1.6 3 2.2 4.6 1.2l37-21.4C179.1 138.7 179.7 136.7 178.8 135zM89 166.6h9.5v9.5H89V166.6zM16.2 92.5v9.5H6.8v-9.5H16.2zM89 109.5l0-73.8 24.3 42c-2.6 2.5-4.1 5.9-4.1 9.7 0 7.5 6.1 13.5 13.5 13.5 7.5 0 13.5-6.1 13.5-13.5 0-7.5-6.1-13.5-13.5-13.5 -1.3 0-2.5 0.2-3.6 0.5l-24.3-42 63.9 36.9 0 41.7 -33.6 19.4L89 109.5zM115.9 87.4c0-3.7 3-6.8 6.8-6.8 3.7 0 6.8 3 6.8 6.8 0 3.7-3 6.8-6.8 6.8C119 94.2 115.9 91.2 115.9 87.4zM140.1 153.5l-10.4-18 31.2-18 10.4 18L140.1 153.5z"/><path class="st1" d="M158.7 110.9l0-41.7L94.8 32.4l24.3 42c1.2-0.3 2.4-0.5 3.6-0.5 7.5 0 13.5 6.1 13.5 13.5 0 7.5-6.1 13.5-13.5 13.5 -7.5 0-13.5-6.1-13.5-13.5 0-3.7 1.5-7.2 4.1-9.7L89 35.7l0 73.8 36.1 20.8L158.7 110.9 158.7 110.9z"/></svg>
