<svg xmlns="http://www.w3.org/2000/svg" xmlns:xlink="http://www.w3.org/1999/xlink">

  <symbol id="md-logo" viewBox="0 0 117.1 144">
    <title>Home</title>
    <path class="backslash" fill="currentColor" d="M0.9 144h5.7c0.8 0 1.4-0.4 1.8-1.1l38.3-58.8c0.3-0.5 0.3-0.8 0.2-1.1 -0.1-0.3-0.4-0.4-0.8-0.4h-5.7c-0.8 0-1.4 0.4-1.8 1.1L0.3 142.5C0 143-0.1 143.3 0 143.6 0.1 143.9 0.4 144 0.9 144"/><path d="M111.7 87.5c-3.6-3.2-8.5-4.8-14.5-4.8H76.4c-0.4 0-0.7 0.1-1 0.4 -0.2 0.2-0.3 0.6-0.3 1v58.7c0 0.4 0.1 0.7 0.3 1 0.2 0.2 0.6 0.4 1 0.4h20.8c6.1 0 10.9-1.6 14.5-4.8 3.6-3.2 5.4-7.4 5.4-12.7v-26.3C117.1 94.9 115.3 90.7 111.7 87.5zM108.7 125.3c-0.1 3.5-1.1 6.3-3.1 8.4 -2 2.1-4.7 3.1-8.1 3.1H83.9c-0.3 0-0.4-0.1-0.4-0.4V90.4c0-0.3 0.1-0.4 0.4-0.4h13.6c3.4 0 6.2 1 8.2 3.1 2 2.1 3 4.9 3 8.4V125.3z"/><path d="M46.2 0h-5.9c-0.7 0-1.2 0.3-1.6 0.9L24 24.3c-0.2 0.3-0.4 0.3-0.5 0L8.8 0.9C8.4 0.3 7.9 0 7.2 0H1.3c-0.4 0-0.7 0.1-1 0.4C0.1 0.6 0 0.9 0 1.3V60c0 0.4 0.1 0.7 0.3 1 0.2 0.2 0.6 0.4 1 0.4h5.8c0.4 0 0.7-0.1 1-0.4 0.2-0.2 0.4-0.6 0.4-1V15.5c0-0.2 0.1-0.4 0.2-0.4 0.1 0 0.2 0 0.4 0.2l11.8 19.4c0.4 0.6 0.9 0.9 1.6 0.9h2.8c0.7 0 1.2-0.3 1.6-0.9l11.9-19.4c0.1-0.2 0.2-0.2 0.4-0.2 0.1 0 0.2 0.2 0.2 0.4V60c0 0.4 0.1 0.7 0.3 1 0.2 0.2 0.6 0.4 1 0.4h5.8c0.4 0 0.7-0.1 1-0.4 0.2-0.2 0.3-0.6 0.3-1V1.3c0-0.4-0.1-0.7-0.3-1C47 0.1 46.6 0 46.2 0z"/><path d="M111.7 4.8C108 1.6 103.2 0 97.1 0H76.4c-0.4 0-0.7 0.1-1 0.4 -0.2 0.2-0.4 0.6-0.4 1V60c0 0.4 0.1 0.7 0.4 1 0.2 0.2 0.6 0.4 1 0.4h20.8c6.1 0 10.9-1.6 14.5-4.8 3.6-3.2 5.4-7.4 5.4-12.7V17.5C117.1 12.2 115.3 8 111.7 4.8zM108.7 42.6c-0.1 3.5-1.1 6.3-3.1 8.4 -2 2.1-4.7 3.1-8.1 3.1H83.9c-0.3 0-0.4-0.1-0.4-0.4V7.7c0-0.3 0.1-0.4 0.4-0.4h13.6c3.4 0 6.2 1 8.2 3.1 2 2.1 3 4.9 3 8.4V42.6z"/>
  </symbol>

  <symbol id="codepen" viewBox="0 0 108 108">
    <title>Codepen</title>
    <path d="M107.9 36.7L107.9 36.7c0-0.1 0-0.3-0.1-0.4 0-0.1 0-0.1-0.1-0.2 0-0.1-0.1-0.2-0.1-0.3 0-0.1-0.1-0.2-0.1-0.2 0-0.1-0.1-0.2-0.2-0.3 0-0.1-0.1-0.1-0.1-0.2 -0.1-0.1-0.1-0.2-0.2-0.3 -0.1-0.1-0.1-0.1-0.2-0.2 -0.1-0.1-0.2-0.2-0.2-0.3 -0.1-0.1-0.1-0.1-0.2-0.2 -0.1-0.1-0.2-0.1-0.3-0.2 -0.1-0.1-0.1-0.1-0.2-0.2 0 0 0 0-0.1-0.1L56.6 0.8c-1.6-1-3.6-1-5.1 0L2.1 33.7c0 0 0 0-0.1 0.1 -0.1 0.1-0.1 0.1-0.2 0.2C1.7 34 1.6 34 1.5 34.1c-0.1 0.1-0.1 0.1-0.2 0.2 -0.1 0.1-0.2 0.2-0.2 0.3C1 34.6 1 34.7 0.9 34.8c-0.1 0.1-0.1 0.2-0.2 0.3 0 0.1-0.1 0.1-0.1 0.2 -0.1 0.1-0.1 0.2-0.2 0.3 0 0.1-0.1 0.1-0.1 0.2 0 0.1-0.1 0.2-0.1 0.3 0 0.1-0.1 0.1-0.1 0.2 0 0.1-0.1 0.3-0.1 0.4 0 0.1 0 0.1 0 0.2 0 0.2 0 0.4 0 0.6v32.9c0 0.2 0 0.4 0 0.6 0 0.1 0 0.1 0 0.2 0 0.1 0 0.3 0.1 0.4 0 0.1 0 0.1 0.1 0.2 0 0.1 0.1 0.2 0.1 0.3 0 0.1 0.1 0.1 0.1 0.2 0 0.1 0.1 0.2 0.2 0.3 0 0.1 0.1 0.1 0.1 0.2 0.1 0.1 0.1 0.2 0.2 0.3 0.1 0.1 0.1 0.1 0.2 0.2 0.1 0.1 0.1 0.2 0.2 0.3 0.1 0.1 0.1 0.1 0.2 0.2 0.1 0.1 0.2 0.1 0.3 0.2 0.1 0.1 0.1 0.1 0.2 0.2 0 0 0 0 0.1 0.1l49.3 32.9c0.8 0.5 1.7 0.8 2.6 0.8 0.9 0 1.8-0.3 2.6-0.8l49.4-32.9c0 0 0.1 0 0.1-0.1 0.1-0.1 0.1-0.1 0.2-0.2 0.1-0.1 0.2-0.1 0.3-0.2 0.1-0.1 0.1-0.1 0.2-0.2 0.1-0.1 0.2-0.2 0.2-0.3 0.1-0.1 0.1-0.1 0.2-0.2 0.1-0.1 0.1-0.2 0.2-0.3 0-0.1 0.1-0.1 0.1-0.2 0.1-0.1 0.1-0.2 0.2-0.3 0-0.1 0.1-0.1 0.1-0.2 0-0.1 0.1-0.2 0.1-0.3 0-0.1 0.1-0.1 0.1-0.2 0-0.1 0.1-0.3 0.1-0.4 0-0.1 0-0.1 0-0.2 0-0.2 0-0.4 0-0.6V37.5c0-0.2 0-0.4 0-0.6C107.9 36.9 107.9 36.8 107.9 36.7zM58.6 13.3L95 37.6 78.8 48.4 58.6 35V13.3zM49.4 13.3V35L29.2 48.4 13 37.6 49.4 13.3zM9.3 46.2L20.9 54 9.3 61.8V46.2zM49.4 94.7L13 70.4l16.2-10.9v0L49.4 73V94.7zM54 65L37.6 54 54 43l16.4 11L54 65zM58.6 94.7V73l20.1-13.5L95 70.4 58.6 94.7zM98.7 61.8L87.1 54l11.6-7.8V61.8z"/>
  </symbol>

  <symbol id="email" viewBox="0 0 108 78.3">
    <title>Email</title>
    <path d="M98.5 0h-89C4.3 0 0 4.3 0 9.5v59.3c0 5.2 4.3 9.5 9.5 9.5h89c5.2 0 9.5-4.3 9.5-9.5V9.5C108 4.3 103.7 0 98.5 0zM74.1 40.4l24.8-24.7v47.6L74.1 40.4zM54.3 47.3c-0.1 0.1-0.4 0.1-0.5 0L15.5 9.1h77.1L54.3 47.3zM40.2 46.7l7 7c1.8 1.8 4.2 2.8 6.7 2.8 2.5 0 4.9-1 6.7-2.8l6.9-6.9 24.2 22.3H15.9L40.2 46.7zM33.8 40.3L9.1 63V15.7L33.8 40.3z"/>
  </symbol>

  <symbol id="github" viewBox="0 0 108 91.6">
  <title>Github</title>
    <path d="M72.7 53.5c-4.2 0-7.6 4.7-7.6 10.6 0 5.8 3.4 10.6 7.6 10.6s7.6-4.7 7.6-10.6C80.3 58.2 76.9 53.5 72.7 53.5L72.7 53.5zM99.2 26c0.9-2.1 0.9-14.3-3.7-26 0 0-10.6 1.2-26.7 12.2 -3.4-0.9-9.1-1.4-14.8-1.4 -5.7 0-11.4 0.5-14.8 1.4C23.1 1.2 12.5 0 12.5 0 7.9 11.7 7.9 23.8 8.8 26 3.3 31.9 0 39 0 48.7c0 42.2 35 42.9 43.8 42.9 2 0 6 0 10.2 0 4.2 0 8.2 0 10.2 0 8.8 0 43.8-0.7 43.8-42.9C108 39 104.7 31.9 99.2 26L99.2 26zM54.2 86.4h-0.3c-22.1 0-39.4-2.6-39.4-24.2 0-5.2 1.8-9.9 6.1-13.9 7.2-6.6 19.4-3.1 33.2-3.1 0.1 0 0.1 0 0.2 0 0.1 0 0.1 0 0.2 0 13.8 0 26-3.5 33.2 3.1 4.3 4 6.1 8.8 6.1 13.9C93.5 83.7 76.3 86.4 54.2 86.4L54.2 86.4zM35.3 53.5c-4.2 0-7.6 4.7-7.6 10.6 0 5.8 3.4 10.6 7.6 10.6 4.2 0 7.6-4.7 7.6-10.6C43 58.2 39.6 53.5 35.3 53.5L35.3 53.5zM35.3 53.5"/>
  </symbol>

  <symbol id="linkedin" viewBox="0 0 108 107.8">
    <title>LinkedIn</title>
    <rect x="1.8" y="35.8" width="22.4" height="72"/><path d="M13 0C5.8 0 0 5.8 0 13s5.8 13 13 13c7.2 0 13-5.8 13-13S20.1 0 13 0z"/><path d="M81.2 34C70.3 34 63 40 60 45.6h-0.3v-9.8H38.2v72h22.4V72.2c0-9.4 1.8-18.5 13.4-18.5 11.5 0 11.6 10.7 11.6 19.1v35H108V68.3C108 48.9 103.8 34 81.2 34z"/>
  </symbol>


<symbol id="svcs-branding" viewBox="0 0 179.2 194.5">
    <title>Branding</title>
    <path fill="currentColor" d="M178.8 135L165.4 112l0-44.6c0-0.5-0.7-2.4-1.9-3l-76.3-44c-0.5-0.3-1.1-0.5-1.8-0.5 -21.5 0-41.4 8-55.7 22.2 -6.2 6.2-11.3 13.5-15 21.9V19.7c3.9-1.4 6.8-5.1 6.8-9.6C21.6 4.5 17.1 0 11.5 0 5.9 0 1.4 4.5 1.4 10.1c0 4.4 2.8 8.2 6.8 9.6v66.1H3.4c-1.9 0-3.4 1.5-3.4 3.4v16.2c0 1.9 1.5 3.4 3.4 3.4h4.7v66.1c-3.9 1.4-6.8 5.1-6.8 9.6 0 5.6 4.5 10.1 10.1 10.1 5.6 0 10.1-4.5 10.1-10.1 0-4.4-2.8-8.2-6.8-9.6v-44.2c4 9 9.5 16.8 16.3 23.2 13.4 12.7 31.4 20.1 51 20.8v4.8c0 1.9 1.5 3.4 3.4 3.4h16.2c1.9 0 3.4-1.5 3.4-3.4v-16.2c0-1.9-1.5-3.4-3.4-3.4H85.6c-1.9 0-3.4 1.5-3.4 3.4v4.7c-17.9-0.8-34.2-7.4-46.4-18.9 -10.5-10-17.9-23.6-20.2-40.2h4c1.9 0 3.4-1.5 3.4-3.4V89.1c0-1.9-1.5-3.4-3.4-3.4h-3.9c2.2-15.9 9.1-29.1 19-39 12.2-12.2 29.1-19.4 47.6-20.1l0 84.8c0 1.4 0.9 2.4 2 3.1l38.4 22.2 13.3 23.1c0.9 1.6 3 2.2 4.6 1.2l37-21.4C179.1 138.7 179.7 136.7 178.8 135zM89 166.6h9.5v9.5H89V166.6zM16.2 92.5v9.5H6.8v-9.5H16.2zM89 109.5l0-73.8 24.3 42c-2.6 2.5-4.1 5.9-4.1 9.7 0 7.5 6.1 13.5 13.5 13.5 7.5 0 13.5-6.1 13.5-13.5 0-7.5-6.1-13.5-13.5-13.5 -1.3 0-2.5 0.2-3.6 0.5l-24.3-42 63.9 36.9 0 41.7 -33.6 19.4L89 109.5zM115.9 87.4c0-3.7 3-6.8 6.8-6.8 3.7 0 6.8 3 6.8 6.8 0 3.7-3 6.8-6.8 6.8C119 94.2 115.9 91.2 115.9 87.4zM140.1 153.5l-10.4-18 31.2-18 10.4 18L140.1 153.5z"/><path d="M158.7 110.9l0-41.7L94.8 32.4l24.3 42c1.2-0.3 2.4-0.5 3.6-0.5 7.5 0 13.5 6.1 13.5 13.5 0 7.5-6.1 13.5-13.5 13.5 -7.5 0-13.5-6.1-13.5-13.5 0-3.7 1.5-7.2 4.1-9.7L89 35.7l0 73.8 36.1 20.8L158.7 110.9 158.7 110.9z"/>
  </symbol>

  <symbol id="svcs-design" viewBox="0 0 194.5 194.5">
  <title>Visual Design</title>
    <path fill="currentColor" d="M179.1 137.2c-0.2-0.7-0.5-1.3-1-1.8l-33.8-33.8 50.1-50.1L143.1 0 92.9 50.1 45.4 2.6c-1.4-1.4-3.8-1.4-5.2 0L2.6 40.2c-1.4 1.4-1.4 3.8 0 5.2l47.5 47.5L0 143.1l51.4 51.4 50.1-50.1 33.8 33.8c0.4 0.4 1 0.8 1.7 1l51.2 13.7c2.8 0.7 5.4-1.6 4.7-4.5L179.1 137.2zM105.5 48l9 9 5.2-5.2 -8.9-8.9 7.3-7.3 9 9 5.2-5.2 -9-9 7.3-7.3 20.5 20.5 5.2-5.2 -20.5-20.5 7.3-7.3 41 41 -44.9 44.9 -41-41L105.5 48zM42.8 10.4l129.4 129.4 1.3 4.8 -11.1 0L35.5 17.7 42.8 10.4zM51.4 184.1l-41-41 7.3-7.3 9 9 5.2-5.2 -9-9 7.3-7.3 9 9 5.2-5.2 -9-9 7.3-7.3 9 9 5.2-5.2 -9-9 7.3-7.3 41 41L51.4 184.1zM144.6 173.5l-4.7-1.3L10.4 42.8l7.3-7.3 126.9 126.9V173.5zM22.9 30.3l7.3-7.3 128.3 128.3v7.4l-7.3 0L22.9 30.3zM173.3 181.2l-21.3-5.7V166l10.3 0c2 0 3.7-1.6 3.7-3.7V152l9.6 0 5.7 21.3L173.3 181.2z"/><path d="M162.4 144.6L35.5 17.7l7.3-7.3 129.4 129.4 1.3 4.8L162.4 144.6 162.4 144.6zM30.3 22.9l128.3 128.3v7.4l-7.3 0L22.9 30.3 30.3 22.9 30.3 22.9zM17.7 35.5l126.9 126.9v11.2l-4.7-1.3L10.4 42.8 17.7 35.5 17.7 35.5z"/>
  </symbol>

<symbol id="svcs-dev" viewBox="0 0 200 194.5">
    <title>Web Development</title>
    <path d="M180.2 7.9H19.8c-2 0-11.9 0.7-11.9 11.9v28.3h184.3V19.8C192.1 17.8 191.4 7.9 180.2 7.9zM26.1 34.5c-3.6 0-6.5-2.9-6.5-6.5 0-3.6 2.9-6.5 6.5-6.5 3.6 0 6.5 2.9 6.5 6.5C32.6 31.6 29.7 34.5 26.1 34.5zM48.6 34.5c-3.6 0-6.5-2.9-6.5-6.5 0-3.6 2.9-6.5 6.5-6.5 3.6 0 6.5 2.9 6.5 6.5C55.2 31.6 52.2 34.5 48.6 34.5zM71.2 34.5c-3.6 0-6.5-2.9-6.5-6.5 0-3.6 2.9-6.5 6.5-6.5 3.6 0 6.5 2.9 6.5 6.5C77.7 31.6 74.8 34.5 71.2 34.5z"/><path fill="currentColor" d="M48.6 21.4c-3.6 0-6.5 2.9-6.5 6.5 0 3.6 2.9 6.5 6.5 6.5 3.6 0 6.5-2.9 6.5-6.5C55.2 24.4 52.2 21.4 48.6 21.4z"/><path fill="currentColor" d="M71.2 21.4c-3.6 0-6.5 2.9-6.5 6.5 0 3.6 2.9 6.5 6.5 6.5 3.6 0 6.5-2.9 6.5-6.5C77.7 24.4 74.8 21.4 71.2 21.4z"/><path fill="currentColor" d="M26.1 21.4c-3.6 0-6.5 2.9-6.5 6.5 0 3.6 2.9 6.5 6.5 6.5 3.6 0 6.5-2.9 6.5-6.5C32.6 24.4 29.7 21.4 26.1 21.4z"/><rect fill="none" width="200" height="194.5"/><polygon points="38.2 126.8 76.6 143.3 76.6 130.4 55.5 121.4 76.6 112.3 76.6 99.5 38.2 116 "/><polygon points="123.4 99.5 123.4 112.3 144.5 121.4 123.4 130.4 123.4 143.3 161.8 126.8 161.8 116 "/><polygon points="87.6 149.3 99.8 149.3 112.8 93.4 100.7 93.4 "/><path fill="currentColor" d="M180.2 0H19.8C13 0 0 4.2 0 19.8v154.9c0 6.8 4.1 19.7 19.7 19.7h160.4c6.8 0 19.7-4.1 19.7-19.7V19.8C200 13 195.8 0 180.2 0zM19.8 7.9h160.4c11.2 0 11.9 10 11.9 11.9v28.3H7.9V19.8C7.9 8.6 17.8 7.9 19.8 7.9zM180.2 186.6H19.8c-11.2 0-11.9-9.9-11.9-11.9V55.9h184.3v118.8C192.1 185.9 182.2 186.6 180.2 186.6z"/>
  </symbol>

  <symbol id="svcs-responsive" viewBox="0 0 242.6 194.5">
    <title>Responsive Design</title>
    <polygon points="25 159.8 83.2 159.8 83.2 75.7 47.5 75.7 "/><polygon points="145.6 7.5 109.4 142.4 235.1 142.4 235.1 7.5 "/><path fill="currentColor" d="M52.4 54.6H38.3c-2.1 0-3.7 1.7-3.7 3.7 0 2.1 1.7 3.7 3.7 3.7h14.1c2.1 0 3.7-1.7 3.7-3.7C56.1 56.3 54.5 54.6 52.4 54.6z"/><circle fill="currentColor" cx="65.4" cy="58.3" r="3.7"/><path fill="currentColor" d="M238.9 0H45.3c-2.1 0-3.7 1.7-3.7 3.7V41H19.5C7.7 41 0 48.6 0 60.5V175c0 11.7 7.8 19.5 19.5 19.5h51.7c11.9 0 19.5-7.7 19.5-19.5v-25.2h37.6V187h-17.7c-2.1 0-3.7 1.7-3.7 3.7 0 2.1 1.7 3.7 3.7 3.7h63c2.1 0 3.7-1.7 3.7-3.7 0-2.1-1.7-3.7-3.7-3.7h-17.7v-37.2h82.9c2.1 0 3.7-1.7 3.7-3.7V3.7C242.6 1.7 240.9 0 238.9 0zM83.2 175c0 7.7-4.4 12-12 12H19.5c-7.7 0-12-4.4-12-12v-7.7h75.8V175zM83.2 159.8H25 7.5V75.7h40 35.7V159.8zM83.2 68.2H7.5v-7.7c0-7.6 4.4-12 12-12h51.7c7.7 0 12 4.4 12 12V68.2zM148.5 187.1h-12.7v-37.2h12.7V187.1zM235.1 142.4H109.4 90.7V60.5c0-11.7-7.8-19.5-19.5-19.5H49.1V7.5h96.5 89.6V142.4z"/><circle fill="currentColor" cx="45.3" cy="177.2" r="3.7"/>
  </symbol>

  <symbol id="html" viewBox="0 0 26.45 30">
    <title>HTML</title>
    <path fill="#e44d26" d="M13.23 8.83H8.55l.3 3.39h4.38V8.83zm6.79 13.55l.91-10.16-.91 10.16z"/><path fill="#e44d26" d="M0 0l2.4 27 10.8 3 10.83-3 2.41-27H0zm21.98 25.28l-8.75 2.43v-3.45h-.01l-6.78-1.88-.46-5.19H9.3l.24 2.64 3.68 1h.01v-5.29h-7.4l-.9-10.03h8.3V2.2h10.8c.01 0-2.05 23.08-2.05 23.08z"/><path d="M17.3 15.54h-4.07v5.29l3.68-1 .39-4.29zM13.23 2.2v3.31h8.29l-.3 3.31h-7.99v3.4h7.69l-.91 10.16-6.78 1.88v3.45l8.75-2.43L24.04 2.2H13.23z" fill="#f16529"/><path d="M13.22 20.83l-3.68-1-.24-2.64H5.98l.46 5.19 6.78 1.89h.01v-3.45h-.01v.01zm.01-12V5.51h-8.3l.9 10.02h7.41v-3.31H8.85l-.3-3.4h4.67l.01.01z" fill="#ebebeb"/>
  </symbol>

  <symbol id="css" viewBox="0 0 26.45 30">
    <title>CSS</title>
    <path d="M0 0l2.41 27 10.8 3 10.83-3 2.41-27H0zm21.98 25.28l-8.75 2.42V2.2h10.82l-2.07 23.08z" fill="#0b74b8"/><path fill="#2eaade" d="M13.23 8.88v.16l.4-.16h-.4zm4.08 6.69h-4.08v5.29l3.7-.99.38-4.3z"/><path fill="#2eaade" d="M13.23 2.2v3.36h8.29l-.3 3.31-7.79 3.39h7.49l-.91 10.17-6.79 1.88v3.39l8.75-2.42L24.04 2.2H13.23z"/><path fill="#ebebeb" d="M13.23 5.56h-8.3l.07.89.22 2.42h8.01V5.56z"/><path d="M13.24 12.35l7.99-3.47h-7.6l-8.1 3.39h7.71v.08z" fill="#ccc"/><path fill="#ebebeb" d="M5.53 12.26l.3 3.31h7.42v-3.31H5.53zm7.7 8.61l-3.68-.99-.25-2.65H5.98l.46 5.2 6.79 1.88v-3.44z"/>
  </symbol>

  <symbol id="react" viewBox="0 0 33.72 30">
    <title>React</title>
    <path d="M27.72 9.72c-.36-.12-.72-.23-1.08-.34.06-.25.12-.49.17-.74.82-3.99.28-7.2-1.55-8.26-1.76-1.01-4.64.04-7.54 2.57-.29.25-.57.51-.84.77-.18-.18-.37-.35-.56-.52C13.28.5 10.22-.64 8.39.42 6.63 1.44 6.11 4.46 6.85 8.24c.07.38.16.75.25 1.12-.43.12-.85.25-1.25.39C2.28 11 0 12.95 0 14.97c0 2.09 2.45 4.19 6.17 5.46.3.1.61.2.91.29-.1.4-.19.8-.26 1.2-.71 3.71-.15 6.66 1.6 7.67 1.81 1.04 4.85-.03 7.81-2.62.23-.2.47-.42.7-.65.3.29.6.56.91.83 2.87 2.47 5.7 3.46 7.45 2.45 1.81-1.05 2.4-4.22 1.63-8.07-.06-.29-.13-.6-.2-.9.21-.06.42-.13.63-.2 3.87-1.28 6.38-3.35 6.38-5.47-.01-2.02-2.36-3.98-6.01-5.24zm-9.06-5.68c2.49-2.17 4.82-3.02 5.88-2.41 1.13.65 1.57 3.28.86 6.72l-.15.67c-1.4-.32-2.92-.56-4.51-.71-.93-1.32-1.89-2.52-2.85-3.56.25-.24.51-.48.77-.71zM9.96 16.7c.3.59.62 1.17.96 1.74.34.59.69 1.16 1.06 1.73-1.1-.12-2.15-.29-3.11-.5.29-.95.66-1.95 1.09-2.97zm-.01-3.39c-.42-.99-.78-1.97-1.07-2.92.96-.22 1.99-.39 3.06-.52-.36.56-.7 1.12-1.03 1.7-.33.57-.65 1.15-.96 1.74zm.77 1.7a40.572 40.572 0 013.06-5.32 39.06 39.06 0 016.15 0c.57.85 1.11 1.71 1.62 2.59.51.89 1 1.79 1.45 2.71-.45.93-.93 1.84-1.45 2.73-.51.89-1.05 1.76-1.62 2.61-1 .07-2.03.11-3.09.11-1.05 0-2.07-.03-3.05-.1a44.1 44.1 0 01-1.65-2.61c-.5-.89-.98-1.8-1.42-2.72zm12.09 3.42c.34-.59.67-1.18.98-1.79.45 1.03.83 2.02 1.13 2.97-.98.22-2.03.4-3.15.54.36-.56.71-1.14 1.04-1.72zm.97-5.12c-.31-.59-.64-1.18-.97-1.75-.33-.57-.67-1.13-1.03-1.69 1.08.14 2.11.32 3.07.54-.28.93-.65 1.9-1.07 2.9zm-6.9-7.53c.66.72 1.33 1.52 1.98 2.4-1.33-.06-2.66-.06-3.99 0 .66-.87 1.33-1.67 2.01-2.4zM9.11 1.67c1.13-.65 3.62.28 6.25 2.61.17.15.34.31.51.47-.98 1.05-1.95 2.25-2.88 3.56-1.59.15-3.1.38-4.5.7-.08-.35-.16-.69-.23-1.04-.63-3.24-.21-5.68.85-6.3zM7.46 19.33c-.28-.08-.56-.17-.83-.26-1.64-.56-3-1.29-3.93-2.09-.84-.72-1.26-1.43-1.26-2 0-1.23 1.83-2.79 4.88-3.86.38-.13.77-.25 1.16-.37.42 1.37.98 2.81 1.64 4.26-.67 1.47-1.23 2.93-1.66 4.32zm7.81 6.56c-1.31 1.14-2.62 1.95-3.77 2.36-1.04.37-1.87.38-2.36.09-1.06-.61-1.51-2.98-.9-6.16.07-.38.15-.75.25-1.12 1.38.31 2.91.53 4.54.66.93 1.31 1.91 2.52 2.89 3.58-.22.2-.43.4-.65.59zm1.65-1.63a34.3 34.3 0 01-2.03-2.43 45.541 45.541 0 004.01-.01c-.66.9-1.32 1.72-1.98 2.44zm8.74 2.01c-.2 1.08-.6 1.8-1.1 2.09-1.06.62-3.34-.18-5.79-2.29-.28-.24-.56-.5-.85-.77.95-1.04 1.9-2.25 2.83-3.59 1.63-.14 3.17-.38 4.57-.7.07.28.13.55.18.82.34 1.69.39 3.23.16 4.44zm1.23-7.2c-.18.06-.37.12-.57.18-.43-1.35-1-2.79-1.71-4.27.67-1.45 1.23-2.87 1.64-4.21.34.1.68.21 1 .32 3.12 1.07 5.02 2.66 5.02 3.89.01 1.3-2.05 2.99-5.38 4.09zm-13.04-4.1c0-1.66 1.35-3.01 3.01-3.01 1.66 0 3.01 1.35 3.01 3.01 0 1.66-1.35 3.01-3.01 3.01-1.66 0-3.01-1.35-3.01-3.01z" fill="#56cde8"/>
  </symbol>

  <symbol id="redux" viewBox="0 0 31.6 30">
    <!-- <title>Redux</title> -->
    <path d="M21.9 20.95a2.25 2.25 0 002.01-2.33 2.257 2.257 0 00-2.25-2.17h-.08a2.248 2.248 0 00-2.17 2.33c.04.6.28 1.13.64 1.49-1.37 2.69-3.46 4.66-6.59 6.31-2.13 1.13-4.34 1.53-6.55 1.25-1.81-.24-3.22-1.05-4.1-2.37-1.29-1.97-1.41-4.1-.32-6.23.76-1.53 1.97-2.65 2.73-3.22-.16-.52-.4-1.41-.52-2.05-5.83 4.22-5.23 9.93-3.46 12.63 1.33 2.01 4.02 3.26 7 3.26.8 0 1.61-.08 2.41-.28 5.13-1.02 9.03-4.07 11.25-8.62zm7.07-4.98c-3.06-3.58-7.56-5.55-12.71-5.55h-.64a2.222 2.222 0 00-1.97-1.21h-.08a2.248 2.248 0 00-2.17 2.33 2.257 2.257 0 002.25 2.17h.08c.88-.04 1.65-.6 1.97-1.37h.72c3.06 0 5.95.88 8.57 2.61 2.01 1.33 3.46 3.06 4.26 5.15.68 1.69.64 3.34-.08 4.75-1.13 2.13-3.02 3.3-5.51 3.3-1.61 0-3.14-.48-3.94-.84-.44.4-1.25 1.05-1.81 1.45 1.73.8 3.5 1.25 5.19 1.25 3.86 0 6.72-2.13 7.8-4.26 1.17-2.35 1.09-6.37-1.93-9.78zM8.55 21.64a2.257 2.257 0 002.25 2.17h.08a2.248 2.248 0 002.17-2.33 2.266 2.266 0 00-2.25-2.18h-.08c-.08 0-.2 0-.28.04-1.65-2.73-2.33-5.71-2.09-8.93.15-2.41.96-4.5 2.37-6.23 1.17-1.49 3.42-2.21 4.95-2.25 4.26-.08 6.07 5.23 6.19 7.36.52.12 1.41.4 2.01.6C23.38 3.38 19.36 0 15.5 0c-3.62 0-6.96 2.61-8.28 6.47-1.85 5.15-.64 10.09 1.61 13.99-.2.29-.33.73-.28 1.18z" fill="#764abc"/>
  </symbol>

  <symbol id="javascript" viewBox="0 0 30 30">
    <title>JavaScript</title>
    <path d="M0 0h30v30H0V0z" fill="#f7df1e"/><path d="M7.89 25.07l2.3-1.39c.44.79.85 1.45 1.81 1.45.93 0 1.51-.36 1.51-1.77v-9.59h2.82v9.63c0 2.92-1.71 4.25-4.21 4.25-2.26 0-3.57-1.17-4.23-2.58m9.97-.3l2.3-1.33c.6.99 1.39 1.71 2.78 1.71 1.17 0 1.91-.58 1.91-1.39 0-.97-.77-1.31-2.05-1.87l-.7-.3c-2.03-.87-3.38-1.95-3.38-4.25 0-2.11 1.61-3.73 4.13-3.73 1.79 0 3.08.62 4.01 2.26l-2.2 1.41c-.48-.87-1.01-1.21-1.81-1.21-.83 0-1.35.52-1.35 1.21 0 .85.52 1.19 1.73 1.71l.7.3c2.4 1.03 3.75 2.07 3.75 4.43 0 2.54-1.99 3.93-4.67 3.93-2.64 0-4.33-1.25-5.15-2.88"/>
  </symbol>

  <symbol id="sass" viewBox="0 0 30 30">
    <title>Sass</title>
    <path d="M15 0c8.28 0 15 6.72 15 15 0 8.28-6.72 15-15 15-8.29 0-15-6.72-15-15C0 6.72 6.71 0 15 0z" fill-rule="evenodd" clip-rule="evenodd" fill="#c69"/><path d="M23.65 7.13c-.62-2.45-4.68-3.25-8.52-1.89-2.29.81-4.76 2.09-6.54 3.75-2.12 1.98-2.45 3.7-2.31 4.42.49 2.54 3.97 4.2 5.4 5.43v.01c-.42.21-3.51 1.77-4.23 3.37-.76 1.69.12 2.89.71 3.06 1.81.5 3.67-.4 4.67-1.89.96-1.44.88-3.3.47-4.22.58-.15 1.25-.22 2.11-.12 2.42.28 2.89 1.79 2.8 2.42-.09.63-.6.98-.77 1.08-.17.1-.22.14-.21.22.02.11.1.11.24.08.2-.03 1.27-.51 1.32-1.68.06-1.48-1.36-3.14-3.87-3.09-1.03.02-1.69.12-2.16.29-.03-.04-.07-.08-.11-.12-1.55-1.66-4.42-2.83-4.3-5.06.04-.81.33-2.94 5.52-5.53 4.25-2.12 7.66-1.54 8.25-.24.84 1.85-1.82 5.28-6.24 5.77-1.68.19-2.57-.46-2.79-.71-.23-.26-.27-.27-.35-.22-.14.08-.05.3 0 .44.13.34.67.95 1.6 1.25.81.27 2.79.41 5.18-.51 2.65-1.02 4.74-3.9 4.13-6.31zM12.26 19.61c.2.74.18 1.43-.03 2.06-.02.07-.05.14-.08.21-.03.07-.06.14-.09.2-.16.33-.37.64-.64.93-.8.87-1.92 1.2-2.4.93-.52-.3-.26-1.53.67-2.51 1-1.06 2.44-1.73 2.44-1.73.05-.05.09-.07.13-.09z" fill="#fff"/>

  <symbol id="jquery" viewBox="0 0 29.42 30">
    <title>jQuery</title>
    <path d="M27.74 21.6c-.32.9-.75 1.77-1.3 2.59-4.07 6.21-12.82 7.66-19.56 3.25-6.73-4.41-8.9-13.02-4.83-19.23.55-.82 1.17-1.56 1.86-2.22-2.11 5.84.29 12.82 6.13 16.64 5.84 3.83 13.19 3.24 17.7-1.03zm-12.52-6.87c-4.68-3.07-6.61-8.67-4.91-13.35-.56.53-1.06 1.12-1.5 1.79-3.26 4.98-1.53 11.89 3.87 15.43 5.4 3.54 12.43 2.37 15.69-2.61.43-.66.78-1.36 1.04-2.08-3.61 3.42-9.51 3.88-14.19.82zm3.99-6.1c-3.03-1.98-4.28-5.6-3.18-8.63-.36.34-.68.73-.97 1.15-2.11 3.22-.99 7.69 2.51 9.98s8.04 1.53 10.15-1.69c.28-.42.51-.87.68-1.34-2.34 2.22-6.16 2.52-9.19.53z" fill="#0669ac"/>
  </symbol>

  <symbol id="express" viewBox="0 0 51.62 30">
    <title>Express</title>
    <path d="M51.62 29.22c-1.88.48-3.04.02-4.09-1.55L40.11 17.4l-1.07-1.42-8.67 11.73c-.99 1.41-2.03 2.02-3.88 1.53l11.1-14.9L27.25.87c1.78-.35 3.01-.17 4.1 1.42l7.7 10.4L46.8 2.35C47.79.94 48.86.4 50.65.92l-4.01 5.31-5.43 7.07c-.65.81-.56 1.36.04 2.14l10.37 13.78zM.83 9.62C3.3.78 13.43-2.89 20.42 2.57c4.08 3.21 5.1 7.76 4.9 12.85H2.3c-.35 9.16 6.25 14.69 14.66 11.87 2.95-.99 4.69-3.3 5.56-6.19.44-1.45 1.17-1.67 2.53-1.26-.69 3.61-2.26 6.63-5.57 8.52-4.95 2.83-12.01 1.91-15.73-2.02C1.54 24.06.62 21.17.21 18.08c-.7-3.83.62-8.46.62-8.46zm1.51 3.85h20.8C23 6.84 18.88 2.14 13.24 2.1 7.05 2.05 2.61 6.64 2.34 13.47z" fill="#666"/>
  </symbol>

  <symbol id="node" viewBox="0 0 26.6 30">
    <title>Node.js</title>
    <path d="M13.3 30c-.4 0-.8-.1-1.15-.31l-3.67-2.17c-.55-.31-.28-.42-.1-.48.73-.25.88-.31 1.66-.75.08-.05.19-.03.27.02l2.82 1.67c.1.06.25.06.34 0l10.99-6.35c.1-.06.17-.18.17-.3V8.65c0-.12-.07-.24-.17-.3L13.47 2.01a.344.344 0 00-.34 0L2.15 8.35a.34.34 0 00-.17.3v12.69c0 .12.07.24.17.29l3.01 1.74c1.63.82 2.63-.15 2.63-1.11V9.73c0-.18.14-.32.32-.32H9.5c.17 0 .32.14.32.32v12.53c0 2.18-1.19 3.43-3.26 3.43-.64 0-1.14 0-2.53-.69l-2.88-1.66a2.318 2.318 0 01-1.15-2V8.65c0-.82.44-1.59 1.15-2l11-6.35c.7-.39 1.62-.39 2.31 0l10.99 6.35c.71.41 1.15 1.18 1.15 2v12.69c0 .82-.44 1.59-1.15 2.01L14.46 29.7c-.35.2-.75.3-1.16.3zm8.88-12.51c0-2.37-1.6-3.01-4.98-3.45-3.41-.45-3.76-.68-3.76-1.48 0-.66.29-1.54 2.82-1.54 2.26 0 3.09.49 3.43 2.01.03.14.16.25.31.25h1.43c.09 0 .17-.04.23-.1.06-.07.09-.15.08-.24-.22-2.62-1.96-3.85-5.49-3.85-3.13 0-5 1.32-5 3.54 0 2.41 1.86 3.07 4.87 3.37 3.6.35 3.88.88 3.88 1.59 0 1.23-.99 1.75-3.3 1.75-2.91 0-3.55-.73-3.76-2.18a.315.315 0 00-.32-.27H11.2c-.18 0-.32.14-.32.32 0 1.85 1.01 4.06 5.82 4.06 3.48-.01 5.48-1.38 5.48-3.78z" fill="#699f63"/>
  </symbol>

  <symbol id="firebase" viewBox="0 0 21.88 30">
    <title>Firebase</title>
    <path fill="#c30e2e" d="M18.7 26.22l-6.75 3.56z"/><path d="M.36 23.44L8.85 7.43 4.66.39C4.35-.15 4-.08 3.9.53L.02 23.32c-.1.61.26 1.35.81 1.65-.55-.29-.76-.98-.47-1.53z" fill="#ffa50e"/><path d="M14.45 10.06l-2.97-5.59c-.29-.55-.77-.55-1.06 0L8.85 7.43l3.05 5.14 2.55-2.51z" fill="#ffa40c"/><path d="M.64 23.65c-.44.44-.36 1.03.19 1.32l9.12 4.81c.55.29 1.45.29 2 0l9.12-4.81c.55-.29.91-1.03.79-1.64L18.74 7.17c-.12-.61-.58-.75-1.02-.32L.64 23.65z" fill="#ffcb2b"/><path d="M.64 23.65L11.9 12.57 8.85 7.43.36 23.44c-.29.55-.08 1.24.47 1.53-.55-.29-.64-.89-.19-1.32z" fill="#f5820b"/>
  </symbol>

  <symbol id="googlemaps" viewBox="0 0 21.88 30">
    <title>Google Maps</title>
    <path fill="#34a853" d="M13.8 12.67c.03-.05.06-.09.09-.14-.03.05-.06.09-.09.14zM19.74 5.62c-.01.01 0 .01 0 .02l-5.73 6.83a4 4 0 01-1.05 1.23l-7.21 8.54c.93 1.16 1.87 2.61 2.36 3.49.6 1.14.85 1.92 1.3 3.29.28.75.52.98 1.05.98.57 0 .83-.39 1.04-.99.42-1.3.74-2.29 1.25-3.23 1-1.81 2.27-3.41 3.51-4.96.34-.43 2.5-2.98 3.48-5.01 0 0 1.19-2.21 1.19-5.3-.01-2.88-1.19-4.89-1.19-4.89z"/><path fill="#fbbc04" d="M7.37 7.9v-.01zM10.46 14.56c-2.24 0-4.06-1.82-4.06-4.06 0-.79.22-1.52.6-2.14l-5.98 7.08c1.13 2.56 3.27 4.8 4.74 6.78l7.21-8.54c-.69.56-1.56.88-2.51.88zM13.46 13.11c.05-.05.07-.08.07-.08l-.07.08z"/><path fill="#4285f4" d="M10.46 6.43a4.063 4.063 0 013.55 6.03l5.73-6.83C18.41 3.05 16.2 1.3 13.62.47l-.02.02-5.96 7.08c.73-.7 1.72-1.14 2.82-1.14zM7.37 7.89z"/><path d="M7.64 7.57l5.97-7.1s-1.37-.48-3.18-.48C6.69 0 3.99 1.9 2.44 3.74v.03l.01-.01 4.89 4.13c.1-.12.2-.22.3-.32z" fill="#1a73e8"/><path d="M7.35 7.88L2.46 3.75C1.08 5.33 0 7.74 0 10.5c0 2.92 1.02 4.94 1.02 4.94L7 8.36c.11-.17.22-.33.35-.48z" fill="#ea4335"/>
  </symbol>

  <symbol id="gulp" viewBox="0 0 30 30">
    <title>Gulp</title>
    <path d="M0 0h30v30H0V0z" fill="#cf4547"/><path d="M4 14.77c-.14.55-.22 1.06-.22 1.5 0 .15.01.3.03.45.02.15.06.29.11.41s.13.22.22.3c.09.08.2.11.33.11.16 0 .34-.05.54-.16.21-.11.43-.26.65-.43.22-.18.45-.38.68-.61.23-.23.44-.46.64-.69.2-.24.38-.46.52-.67.15-.21.26-.4.34-.55l.63-1.87c.08-.21.19-.36.32-.45.13-.1.31-.18.61-.11.29.07.36.47.36.58 0 .26-.02.5-.07.73-.05.22-.1.45-.17.66-.07.22-.15.44-.23.64-.09.23-.17.45-.25.67v.02c-.01 0-.04.05-.1.23-.05.14-.11.32-.17.53-.07.23-.15.47-.22.71-.06.23-.14.48-.24.81l-.24.81c-.08.28-.15.52-.21.71-.07.24-.11.4-.15.53-.04.15-.06.23-.07.26-.02.09-.06.19-.11.29-.05.11-.11.21-.18.3-.07.1-.15.18-.23.24-.09.07-.18.1-.28.1a.42.42 0 01-.36-.17c-.07-.11-.11-.29-.11-.56v-.11c0-.04 0-.08.01-.12.01-.09.04-.25.1-.49.06-.22.13-.47.23-.8.08-.27.17-.56.28-.92.07-.23.14-.44.2-.63-.2.21-.4.42-.62.62-.27.26-.56.5-.86.71-.3.21-.6.39-.89.52-.3.14-.6.2-.88.2-.32 0-.6-.07-.84-.21-.23-.14-.43-.33-.58-.56-.15-.23-.26-.49-.34-.77-.07-.28-.11-.57-.11-.86 0 0 0-.17.01-.2-.01-1.08.54-2.88 1.36-4.75.71-1.61 2.48-3.41 2.83-3.69.37-.25.74-.47 1.1-.63.37-.16.73-.24 1.09-.24.42 0 .82.11 1.21.34.39.23.75.6 1.09 1.1.08.12.13.24.15.36.02.12.03.23.03.33 0 .25-.06.45-.18.6a.56.56 0 01-.45.23c-.16 0-.31-.08-.44-.25-.12-.14-.25-.36-.41-.65-.14-.25-.29-.43-.46-.54a.998.998 0 00-.53-.16c-.3 0-.63.13-.98.38-.35.26-.71.6-1.05 1.03-.35.43-.69.92-1 1.46-.32.55-.6 1.11-.85 1.69-.25.56-.44 1.14-.59 1.69zm23.83.17c-.06-.1-.16-.1-.27-.16-.37-.19-2.63 2.12-2.9 2.34-.26.21-.76.58-1.09.51-.04-.01-.05-.07-.05-.12 0-.02.02-.07.17-.24.12-.15.27-.31.42-.49.16-.19.92-1.13 1.09-1.38.17-.25.31-.51.42-.75.11-.25.43-1.32-.65-1.7-.61-.22-1.56.29-1.76.43-.2.14-.88.75-1.01.88l.03-.18c.01-.08.03-.16.03-.22.01-.07.01-.12.01-.16 0-.17-.05-.31-.14-.4-.09-.09-.23-.14-.43-.14-.13 0-.26.07-.37.21-.1.13-.2.28-.28.45-.08.17-.15.35-.22.52-.06.16-.11.3-.15.41-.06.21-.12.42-.2.64a.36.36 0 00-.1.07c-.12.13-2.03 2.19-2.75 2.04-.08-.02-.1-.03-.11-.05a.398.398 0 01-.03-.17c-.06-.65 2.98-7.61 3.1-7.87.06-.12.11-.24.15-.35.04-.11.06-.22.06-.32 0-.22-.06-.38-.19-.48a.63.63 0 00-.41-.15c-.15 0-.3.05-.44.14-.15.09-.26.25-.35.46 0 0-2.31 5.83-2.48 6.27-.15.39-.31.79-.48 1.24-.08.21-.16.46-.22.71-.05.04-.73.64-1.29.66-.17 0-.25-.07-.25-.24 0-.2.03-.42.09-.66.06-.24.74-1.97.83-2.17.09-.2.16-.4.23-.58.06-.17.09-.31.09-.41 0-.18-.05-.34-.15-.47-.1-.13-.25-.2-.42-.2-.16 0-.3.07-.41.19-.1.12-.42.82-.49 1.03-.06.21-.14.4-.22.58-.31.81-.84 1.52-1.06 1.8-.22.28-.47.52-.72.7-.25.18-.53.28-.81.28-.08 0-.14-.03-.18-.09a.475.475 0 01-.06-.24c.01-.22.05-.46.11-.69.07-.24.15-.48.24-.71.09-.23.19-.46.3-.67.1-.2.2-.4.31-.61.1-.2.19-.36.26-.5.08-.15.27-.9-.25-1.03a.761.761 0 00-.21-.03c-.15 0-.3.05-.43.14-.13.09-.23.25-.34.45-.49.87-1.09 2.63-1.31 3.27-.11.33-.2.99-.2 1 0 .23 0 .94.74 1.17.14.04.29.05.44.06 1.56.09 2.51-1.45 2.6-1.59-.04.21-.05.41-.05.59 0 .36.07.61.22.77.14.15.33.23.56.23.22 0 .47-.06.75-.18.27-.12.55-.28.83-.48.06-.04.11-.08.17-.12 0 .02.1.33.18.44.08.11.18.19.32.26.13.06.29.08.48.09 1.16.07 2.22-1.11 2.46-1.33-.01.03-.03.06-.04.09-.22.5-1.66 3.69-1.71 3.81-.04.11-.08.23-.1.34-.03.12-.04.23-.04.34 0 .23.06.4.18.48.12.08.26.13.43.13.59 0 .8-.53.86-.66.06-.13 1.93-6.41 4.35-7.73.18-.1.36-.13.53-.13.09 0 .15.01.19.04.03.03.05.06.05.11 0 .1-.05.23-.15.39-.1.17-1.32 1.67-1.49 1.89-.17.22-.32.44-.44.65-.12.21-.2.4-.22.57 0 .03-.05.62.29.79 1.25.64 2.52-.32 2.86-.57.33-.25 1.88-1.65 2.36-2.07.13-.1.22-.23.29-.38.06-.15.1-.3.1-.44.02-.14 0-.25-.06-.35z" fill="#fff"/>
  </symbol>

  <symbol id="stripe" viewBox="0 0 30 30">
    <title>Stripe</title>
    <path d="M28 30H2c-1.1 0-2-.9-2-2V2C0 .9.9 0 2 0h26c1.1 0 2 .9 2 2v26c0 1.1-.9 2-2 2z" fill="#635bff"/><path d="M27.82 15.18c0-1.82-.88-3.26-2.57-3.26s-2.72 1.44-2.72 3.25c0 2.14 1.21 3.23 2.95 3.23.85 0 1.49-.19 1.97-.46V16.5c-.48.24-1.04.39-1.74.39-.69 0-1.3-.24-1.38-1.08h3.48c-.01-.09.01-.46.01-.63zm-3.52-.68c0-.8.49-1.14.94-1.14.43 0 .9.33.9 1.14H24.3zm-4.52-2.58c-.7 0-1.15.33-1.4.56l-.09-.44h-1.57v8.3l1.78-.38.01-2.02c.26.19.63.45 1.26.45 1.27 0 2.44-1.03 2.44-3.28-.01-2.07-1.19-3.19-2.43-3.19zm-.43 4.9c-.42 0-.67-.15-.84-.33l-.01-2.64c.19-.21.44-.35.85-.35.65 0 1.1.73 1.1 1.66 0 .95-.44 1.66-1.1 1.66zm-5.08-5.32l1.79-.38V9.67l-1.79.38v1.45zm0 .54h1.79v6.23h-1.79v-6.23zm-1.91.52l-.11-.53h-1.54v6.23h1.78v-4.22c.42-.55 1.13-.45 1.35-.37v-1.64c-.23-.08-1.06-.23-1.48.53zM8.8 10.49l-1.74.37-.01 5.7c0 1.05.79 1.83 1.84 1.83.58 0 1.01-.11 1.25-.23v-1.45c-.23.09-1.35.42-1.35-.63v-2.53h1.35v-1.52H8.79l.01-1.54zm-4.82 3.36c0-.28.23-.38.61-.38.54 0 1.22.16 1.77.46v-1.67c-.59-.23-1.17-.33-1.77-.33-1.45 0-2.41.75-2.41 2.02 0 1.97 2.71 1.65 2.71 2.5 0 .33-.28.43-.68.43-.59 0-1.35-.24-1.94-.57V18c.66.28 1.33.41 1.94.41 1.48 0 2.5-.73 2.5-2.01-.01-2.13-2.73-1.76-2.73-2.55z" fill="#fff"/>
  </symbol>

  <symbol id="foursquare" viewBox="0 0 21.5 30">
    <title>Foursquare</title>
    <path d="M21.09.87c-.53-.79-1.57-.88-2.44-.87C13.41.02 8.16.01 2.91.01c-.3.01-.6.03-.9.08C1.05.25.26 1.06.09 2.01c-.15.94-.07 1.9-.08 2.85 0 7.7.01 15.41-.01 23.11.02.48.04.99.33 1.39.46.63 1.41.79 2.09.45.41-.23.72-.59 1.03-.94 2.25-2.66 4.6-5.25 6.85-7.91.25-.28.54-.59.95-.57 1.62-.08 3.25.05 4.87-.03.55-.03 1.13-.19 1.53-.59.55-.54.71-1.31.89-2.03.92-4.47 1.76-8.96 2.68-13.42.23-1.11.55-2.41-.13-3.45zM17.6 5.76c-.18.78-.23 1.61-.56 2.35-.19.42-.71.41-1.1.44-1.94.04-3.89-.04-5.84.01-.6-.02-1.24.35-1.28 1-.09.6-.09 1.46.35 1.92.15.15.34.27.59.31 1.91.21 3.85-.07 5.76.11.48.01.6.44.59.85 0 .14-.02.27-.05.39-.22 1.12-.39 2.26-.71 3.36-.08.36-.43.55-.78.56-1.61.13-3.23-.06-4.84.06-.66.01-1.05.6-1.44 1.05-1.62 2-3.26 3.98-4.94 5.94-.08-6.29 0-12.58-.05-18.86.01-.47-.01-.96.16-1.41.25-.52.9-.51 1.39-.53 3.83 0 7.65.01 11.48 0 .5.04 1.17-.03 1.47.48.13.65-.09 1.32-.2 1.97z" fill-rule="evenodd" clip-rule="evenodd" fill="#ee4a77"/>
  </symbol>

  <symbol id="unsplash" viewBox="0 0 30 30">
    <title>Unsplash</title>
    <path d="M30.01 13.27V30H-.01V13.27h9.45v8.37h11.1v-8.37h9.47zM20.56 0H9.45v8.37h11.1c.01 0 .01-8.37.01-8.37z" fill="#666"/>
  </symbol>

  <symbol id="mapbox" viewBox="0 0 30 30">
    <title>Mapbox</title>
    <path d="M15 0C6.72 0 0 6.72 0 15s6.72 15 15 15 15-6.72 15-15S23.28 0 15 0zm7.12 18.68c-5.13 5.13-14.29 3.49-14.29 3.49s-1.65-9.15 3.49-14.29c2.85-2.85 7.58-2.73 10.56.24s3.09 7.71.24 10.56zm-5.4-9.89l-1.47 3.02-3.02 1.47 3.02 1.47 1.47 3.02 1.47-3.02 3.02-1.47-3.02-1.47-1.47-3.02z" fill="#4264fb"/>
  </symbol>

</svg>