<svg xmlns="http://www.w3.org/2000/svg" viewBox="0 0 194.5 194.5"><style type="text/css">
	.st0{fill:#434343;}
	.st1{fill:#fcb715;}
</style><path class="st0" d="M179.1 137.2c-0.2-0.7-0.5-1.3-1-1.8l-33.8-33.8 50.1-50.1L143.1 0 92.9 50.1 45.4 2.6c-1.4-1.4-3.8-1.4-5.2 0L2.6 40.2c-1.4 1.4-1.4 3.8 0 5.2l47.5 47.5L0 143.1l51.4 51.4 50.1-50.1 33.8 33.8c0.4 0.4 1 0.8 1.7 1l51.2 13.7c2.8 0.7 5.4-1.6 4.7-4.5L179.1 137.2zM105.5 48l9 9 5.2-5.2 -8.9-8.9 7.3-7.3 9 9 5.2-5.2 -9-9 7.3-7.3 20.5 20.5 5.2-5.2 -20.5-20.5 7.3-7.3 41 41 -44.9 44.9 -41-41L105.5 48zM42.8 10.4l129.4 129.4 1.3 4.8 -11.1 0L35.5 17.7 42.8 10.4zM51.4 184.1l-41-41 7.3-7.3 9 9 5.2-5.2 -9-9 7.3-7.3 9 9 5.2-5.2 -9-9 7.3-7.3 9 9 5.2-5.2 -9-9 7.3-7.3 41 41L51.4 184.1zM144.6 173.5l-4.7-1.3L10.4 42.8l7.3-7.3 126.9 126.9V173.5zM22.9 30.3l7.3-7.3 128.3 128.3v7.4l-7.3 0L22.9 30.3zM173.3 181.2l-21.3-5.7V166l10.3 0c2 0 3.7-1.6 3.7-3.7V152l9.6 0 5.7 21.3L173.3 181.2z"/><path class="st1" d="M162.4 144.6L35.5 17.7l7.3-7.3 129.4 129.4 1.3 4.8L162.4 144.6 162.4 144.6zM30.3 22.9l128.3 128.3v7.4l-7.3 0L22.9 30.3 30.3 22.9 30.3 22.9zM17.7 35.5l126.9 126.9v11.2l-4.7-1.3L10.4 42.8 17.7 35.5 17.7 35.5z"/></svg>
