<svg xmlns="http://www.w3.org/2000/svg" viewBox="0 0 117.1 144" height="50" width="50"><path class="yellow" d="M0.9 144h5.7c0.8 0 1.4-0.4 1.8-1.1l38.3-58.8c0.3-0.5 0.3-0.8 0.2-1.1 -0.1-0.3-0.4-0.4-0.8-0.4h-5.7c-0.8 0-1.4 0.4-1.8 1.1L0.3 142.5C0 143-0.1 143.3 0 143.6 0.1 143.9 0.4 144 0.9 144"/><path class="off-white" d="M111.7 87.5c-3.6-3.2-8.5-4.8-14.5-4.8H76.4c-0.4 0-0.7 0.1-1 0.4 -0.2 0.2-0.3 0.6-0.3 1v58.7c0 0.4 0.1 0.7 0.3 1 0.2 0.2 0.6 0.4 1 0.4h20.8c6.1 0 10.9-1.6 14.5-4.8 3.6-3.2 5.4-7.4 5.4-12.7v-26.3C117.1 94.9 115.3 90.7 111.7 87.5zM108.7 125.3c-0.1 3.5-1.1 6.3-3.1 8.4 -2 2.1-4.7 3.1-8.1 3.1H83.9c-0.3 0-0.4-0.1-0.4-0.4V90.4c0-0.3 0.1-0.4 0.4-0.4h13.6c3.4 0 6.2 1 8.2 3.1 2 2.1 3 4.9 3 8.4V125.3z"/><path class="off-white" d="M46.2 0h-5.9c-0.7 0-1.2 0.3-1.6 0.9L24 24.3c-0.2 0.3-0.4 0.3-0.5 0L8.8 0.9C8.4 0.3 7.9 0 7.2 0H1.3c-0.4 0-0.7 0.1-1 0.4C0.1 0.6 0 0.9 0 1.3V60c0 0.4 0.1 0.7 0.3 1 0.2 0.2 0.6 0.4 1 0.4h5.8c0.4 0 0.7-0.1 1-0.4 0.2-0.2 0.4-0.6 0.4-1V15.5c0-0.2 0.1-0.4 0.2-0.4 0.1 0 0.2 0 0.4 0.2l11.8 19.4c0.4 0.6 0.9 0.9 1.6 0.9h2.8c0.7 0 1.2-0.3 1.6-0.9l11.9-19.4c0.1-0.2 0.2-0.2 0.4-0.2 0.1 0 0.2 0.2 0.2 0.4V60c0 0.4 0.1 0.7 0.3 1 0.2 0.2 0.6 0.4 1 0.4h5.8c0.4 0 0.7-0.1 1-0.4 0.2-0.2 0.3-0.6 0.3-1V1.3c0-0.4-0.1-0.7-0.3-1C47 0.1 46.6 0 46.2 0z"/><path class="off-white" d="M111.7 4.8C108 1.6 103.2 0 97.1 0H76.4c-0.4 0-0.7 0.1-1 0.4 -0.2 0.2-0.4 0.6-0.4 1V60c0 0.4 0.1 0.7 0.4 1 0.2 0.2 0.6 0.4 1 0.4h20.8c6.1 0 10.9-1.6 14.5-4.8 3.6-3.2 5.4-7.4 5.4-12.7V17.5C117.1 12.2 115.3 8 111.7 4.8zM108.7 42.6c-0.1 3.5-1.1 6.3-3.1 8.4 -2 2.1-4.7 3.1-8.1 3.1H83.9c-0.3 0-0.4-0.1-0.4-0.4V7.7c0-0.3 0.1-0.4 0.4-0.4h13.6c3.4 0 6.2 1 8.2 3.1 2 2.1 3 4.9 3 8.4V42.6z"/></svg>
