<svg class="footer-logo-icon" xmlns="http://www.w3.org/2000/svg" viewBox="0 0 108 108"><style type="text/css">
	.dark-gray{fill:#434343;}
</style><path class="dark-gray" d="M107.9 36.7L107.9 36.7c0-0.1 0-0.3-0.1-0.4 0-0.1 0-0.1-0.1-0.2 0-0.1-0.1-0.2-0.1-0.3 0-0.1-0.1-0.2-0.1-0.2 0-0.1-0.1-0.2-0.2-0.3 0-0.1-0.1-0.1-0.1-0.2 -0.1-0.1-0.1-0.2-0.2-0.3 -0.1-0.1-0.1-0.1-0.2-0.2 -0.1-0.1-0.2-0.2-0.2-0.3 -0.1-0.1-0.1-0.1-0.2-0.2 -0.1-0.1-0.2-0.1-0.3-0.2 -0.1-0.1-0.1-0.1-0.2-0.2 0 0 0 0-0.1-0.1L56.6 0.8c-1.6-1-3.6-1-5.1 0L2.1 33.7c0 0 0 0-0.1 0.1 -0.1 0.1-0.1 0.1-0.2 0.2C1.7 34 1.6 34 1.5 34.1c-0.1 0.1-0.1 0.1-0.2 0.2 -0.1 0.1-0.2 0.2-0.2 0.3C1 34.6 1 34.7 0.9 34.8c-0.1 0.1-0.1 0.2-0.2 0.3 0 0.1-0.1 0.1-0.1 0.2 -0.1 0.1-0.1 0.2-0.2 0.3 0 0.1-0.1 0.1-0.1 0.2 0 0.1-0.1 0.2-0.1 0.3 0 0.1-0.1 0.1-0.1 0.2 0 0.1-0.1 0.3-0.1 0.4 0 0.1 0 0.1 0 0.2 0 0.2 0 0.4 0 0.6v32.9c0 0.2 0 0.4 0 0.6 0 0.1 0 0.1 0 0.2 0 0.1 0 0.3 0.1 0.4 0 0.1 0 0.1 0.1 0.2 0 0.1 0.1 0.2 0.1 0.3 0 0.1 0.1 0.1 0.1 0.2 0 0.1 0.1 0.2 0.2 0.3 0 0.1 0.1 0.1 0.1 0.2 0.1 0.1 0.1 0.2 0.2 0.3 0.1 0.1 0.1 0.1 0.2 0.2 0.1 0.1 0.1 0.2 0.2 0.3 0.1 0.1 0.1 0.1 0.2 0.2 0.1 0.1 0.2 0.1 0.3 0.2 0.1 0.1 0.1 0.1 0.2 0.2 0 0 0 0 0.1 0.1l49.3 32.9c0.8 0.5 1.7 0.8 2.6 0.8 0.9 0 1.8-0.3 2.6-0.8l49.4-32.9c0 0 0.1 0 0.1-0.1 0.1-0.1 0.1-0.1 0.2-0.2 0.1-0.1 0.2-0.1 0.3-0.2 0.1-0.1 0.1-0.1 0.2-0.2 0.1-0.1 0.2-0.2 0.2-0.3 0.1-0.1 0.1-0.1 0.2-0.2 0.1-0.1 0.1-0.2 0.2-0.3 0-0.1 0.1-0.1 0.1-0.2 0.1-0.1 0.1-0.2 0.2-0.3 0-0.1 0.1-0.1 0.1-0.2 0-0.1 0.1-0.2 0.1-0.3 0-0.1 0.1-0.1 0.1-0.2 0-0.1 0.1-0.3 0.1-0.4 0-0.1 0-0.1 0-0.2 0-0.2 0-0.4 0-0.6V37.5c0-0.2 0-0.4 0-0.6C107.9 36.9 107.9 36.8 107.9 36.7zM58.6 13.3L95 37.6 78.8 48.4 58.6 35V13.3zM49.4 13.3V35L29.2 48.4 13 37.6 49.4 13.3zM9.3 46.2L20.9 54 9.3 61.8V46.2zM49.4 94.7L13 70.4l16.2-10.9v0L49.4 73V94.7zM54 65L37.6 54 54 43l16.4 11L54 65zM58.6 94.7V73l20.1-13.5L95 70.4 58.6 94.7zM98.7 61.8L87.1 54l11.6-7.8V61.8z"/></svg>
