<svg xmlns="http://www.w3.org/2000/svg" viewBox="0 0 108 91.6"><style type="text/css">
	.st0{fill:#434343;}
</style><path class="st0" d="M72.7 53.5c-4.2 0-7.6 4.7-7.6 10.6 0 5.8 3.4 10.6 7.6 10.6s7.6-4.7 7.6-10.6C80.3 58.2 76.9 53.5 72.7 53.5L72.7 53.5zM99.2 26c0.9-2.1 0.9-14.3-3.7-26 0 0-10.6 1.2-26.7 12.2 -3.4-0.9-9.1-1.4-14.8-1.4 -5.7 0-11.4 0.5-14.8 1.4C23.1 1.2 12.5 0 12.5 0 7.9 11.7 7.9 23.8 8.8 26 3.3 31.9 0 39 0 48.7c0 42.2 35 42.9 43.8 42.9 2 0 6 0 10.2 0 4.2 0 8.2 0 10.2 0 8.8 0 43.8-0.7 43.8-42.9C108 39 104.7 31.9 99.2 26L99.2 26zM54.2 86.4h-0.3c-22.1 0-39.4-2.6-39.4-24.2 0-5.2 1.8-9.9 6.1-13.9 7.2-6.6 19.4-3.1 33.2-3.1 0.1 0 0.1 0 0.2 0 0.1 0 0.1 0 0.2 0 13.8 0 26-3.5 33.2 3.1 4.3 4 6.1 8.8 6.1 13.9C93.5 83.7 76.3 86.4 54.2 86.4L54.2 86.4zM35.3 53.5c-4.2 0-7.6 4.7-7.6 10.6 0 5.8 3.4 10.6 7.6 10.6 4.2 0 7.6-4.7 7.6-10.6C43 58.2 39.6 53.5 35.3 53.5L35.3 53.5zM35.3 53.5"/></svg>
