<?xml version="1.0" standalone="no"?>
<!DOCTYPE svg PUBLIC "-//W3C//DTD SVG 20010904//EN"
 "http://www.w3.org/TR/2001/REC-SVG-20010904/DTD/svg10.dtd">
<svg version="1.0" xmlns="http://www.w3.org/2000/svg"
 width="900.000000pt" height="900.000000pt" viewBox="0 0 900.000000 900.000000"
 preserveAspectRatio="xMidYMid meet">
<metadata>
Created by potrace 1.11, written by Peter Selinger 2001-2013
</metadata>
<g transform="translate(0.000000,900.000000) scale(0.100000,-0.100000)"
fill="#000000" stroke="none">
<path d="M1493 8189 c-68 -20 -63 104 -63 -1560 l0 -1506 25 -27 24 -26 231 0
c139 0 239 4 250 10 46 25 45 1 50 1064 l5 1008 246 -403 c207 -340 251 -407
280 -421 27 -14 60 -18 155 -18 109 0 124 2 154 23 25 16 98 127 279 425 l246
402 5 -1019 5 -1019 24 -26 24 -26 233 0 c232 0 233 0 261 24 l28 24 0 1511 0
1511 -28 27 -27 28 -228 0 c-203 0 -230 -2 -257 -18 -23 -14 -125 -168 -375
-568 -189 -302 -347 -549 -350 -549 -3 0 -155 243 -339 539 -183 297 -343 549
-355 561 -13 11 -38 25 -57 30 -43 12 -403 11 -446 -1z"/>
<path d="M5414 8189 c-17 -5 -39 -18 -50 -30 -19 -21 -19 -58 -22 -1498 -1
-812 0 -1491 3 -1510 4 -18 17 -44 30 -57 l24 -24 629 0 c532 0 643 2 723 16
131 22 238 58 349 115 180 93 296 211 380 384 89 185 85 131 85 1045 0 904 3
857 -76 1028 -146 316 -450 501 -874 532 -164 12 -1159 11 -1201 -1z m1251
-521 c162 -48 281 -178 315 -343 7 -34 10 -275 8 -721 l-3 -669 -24 -60 c-57
-143 -152 -236 -285 -277 -67 -21 -88 -23 -411 -23 l-340 0 -3 1045 c-1 575 0
1051 3 1058 8 21 669 11 740 -10z"/>
<path d="M3454 3940 c-11 -4 -32 -21 -47 -37 -15 -15 -463 -691 -997 -1502
-1034 -1571 -1001 -1518 -948 -1555 19 -13 59 -16 238 -16 239 0 251 3 303 72
14 18 456 688 983 1488 637 967 959 1466 962 1487 3 22 -2 37 -17 52 -20 20
-31 21 -238 20 -120 0 -227 -4 -239 -9z"/>
<path d="M5387 3919 c-48 -28 -47 20 -46 -1551 1 -810 4 -1484 8 -1497 3 -13
19 -34 34 -45 28 -21 39 -21 545 -24 285 -2 584 2 667 7 443 30 745 210 894
533 79 171 76 124 76 1028 0 914 4 860 -85 1045 -129 267 -381 440 -729 499
-80 14 -190 16 -720 16 -427 -1 -632 -4 -644 -11z m1290 -516 c152 -50 251
-155 295 -312 17 -60 18 -116 18 -716 0 -706 0 -707 -56 -823 -37 -75 -119
-156 -196 -192 -92 -42 -188 -51 -523 -48 l-290 3 -3 1045 c-1 575 0 1051 3
1059 4 11 64 12 348 9 310 -5 348 -7 404 -25z"/>
</g>
</svg>
