<svg xmlns="http://www.w3.org/2000/svg" xmlns:xlink="http://www.w3.org/1999/xlink">

  <symbol id="md-logo" viewBox="0 0 117.1 144">
    <title>Home</title>
    <path class="backslash" fill="currentColor" d="M0.9 144h5.7c0.8 0 1.4-0.4 1.8-1.1l38.3-58.8c0.3-0.5 0.3-0.8 0.2-1.1 -0.1-0.3-0.4-0.4-0.8-0.4h-5.7c-0.8 0-1.4 0.4-1.8 1.1L0.3 142.5C0 143-0.1 143.3 0 143.6 0.1 143.9 0.4 144 0.9 144"/><path d="M111.7 87.5c-3.6-3.2-8.5-4.8-14.5-4.8H76.4c-0.4 0-0.7 0.1-1 0.4 -0.2 0.2-0.3 0.6-0.3 1v58.7c0 0.4 0.1 0.7 0.3 1 0.2 0.2 0.6 0.4 1 0.4h20.8c6.1 0 10.9-1.6 14.5-4.8 3.6-3.2 5.4-7.4 5.4-12.7v-26.3C117.1 94.9 115.3 90.7 111.7 87.5zM108.7 125.3c-0.1 3.5-1.1 6.3-3.1 8.4 -2 2.1-4.7 3.1-8.1 3.1H83.9c-0.3 0-0.4-0.1-0.4-0.4V90.4c0-0.3 0.1-0.4 0.4-0.4h13.6c3.4 0 6.2 1 8.2 3.1 2 2.1 3 4.9 3 8.4V125.3z"/><path d="M46.2 0h-5.9c-0.7 0-1.2 0.3-1.6 0.9L24 24.3c-0.2 0.3-0.4 0.3-0.5 0L8.8 0.9C8.4 0.3 7.9 0 7.2 0H1.3c-0.4 0-0.7 0.1-1 0.4C0.1 0.6 0 0.9 0 1.3V60c0 0.4 0.1 0.7 0.3 1 0.2 0.2 0.6 0.4 1 0.4h5.8c0.4 0 0.7-0.1 1-0.4 0.2-0.2 0.4-0.6 0.4-1V15.5c0-0.2 0.1-0.4 0.2-0.4 0.1 0 0.2 0 0.4 0.2l11.8 19.4c0.4 0.6 0.9 0.9 1.6 0.9h2.8c0.7 0 1.2-0.3 1.6-0.9l11.9-19.4c0.1-0.2 0.2-0.2 0.4-0.2 0.1 0 0.2 0.2 0.2 0.4V60c0 0.4 0.1 0.7 0.3 1 0.2 0.2 0.6 0.4 1 0.4h5.8c0.4 0 0.7-0.1 1-0.4 0.2-0.2 0.3-0.6 0.3-1V1.3c0-0.4-0.1-0.7-0.3-1C47 0.1 46.6 0 46.2 0z"/><path d="M111.7 4.8C108 1.6 103.2 0 97.1 0H76.4c-0.4 0-0.7 0.1-1 0.4 -0.2 0.2-0.4 0.6-0.4 1V60c0 0.4 0.1 0.7 0.4 1 0.2 0.2 0.6 0.4 1 0.4h20.8c6.1 0 10.9-1.6 14.5-4.8 3.6-3.2 5.4-7.4 5.4-12.7V17.5C117.1 12.2 115.3 8 111.7 4.8zM108.7 42.6c-0.1 3.5-1.1 6.3-3.1 8.4 -2 2.1-4.7 3.1-8.1 3.1H83.9c-0.3 0-0.4-0.1-0.4-0.4V7.7c0-0.3 0.1-0.4 0.4-0.4h13.6c3.4 0 6.2 1 8.2 3.1 2 2.1 3 4.9 3 8.4V42.6z"/>
  </symbol>

  <symbol id="codepen" viewBox="0 0 108 108">
    <title>Codepen</title>
    <path d="M107.9 36.7L107.9 36.7c0-0.1 0-0.3-0.1-0.4 0-0.1 0-0.1-0.1-0.2 0-0.1-0.1-0.2-0.1-0.3 0-0.1-0.1-0.2-0.1-0.2 0-0.1-0.1-0.2-0.2-0.3 0-0.1-0.1-0.1-0.1-0.2 -0.1-0.1-0.1-0.2-0.2-0.3 -0.1-0.1-0.1-0.1-0.2-0.2 -0.1-0.1-0.2-0.2-0.2-0.3 -0.1-0.1-0.1-0.1-0.2-0.2 -0.1-0.1-0.2-0.1-0.3-0.2 -0.1-0.1-0.1-0.1-0.2-0.2 0 0 0 0-0.1-0.1L56.6 0.8c-1.6-1-3.6-1-5.1 0L2.1 33.7c0 0 0 0-0.1 0.1 -0.1 0.1-0.1 0.1-0.2 0.2C1.7 34 1.6 34 1.5 34.1c-0.1 0.1-0.1 0.1-0.2 0.2 -0.1 0.1-0.2 0.2-0.2 0.3C1 34.6 1 34.7 0.9 34.8c-0.1 0.1-0.1 0.2-0.2 0.3 0 0.1-0.1 0.1-0.1 0.2 -0.1 0.1-0.1 0.2-0.2 0.3 0 0.1-0.1 0.1-0.1 0.2 0 0.1-0.1 0.2-0.1 0.3 0 0.1-0.1 0.1-0.1 0.2 0 0.1-0.1 0.3-0.1 0.4 0 0.1 0 0.1 0 0.2 0 0.2 0 0.4 0 0.6v32.9c0 0.2 0 0.4 0 0.6 0 0.1 0 0.1 0 0.2 0 0.1 0 0.3 0.1 0.4 0 0.1 0 0.1 0.1 0.2 0 0.1 0.1 0.2 0.1 0.3 0 0.1 0.1 0.1 0.1 0.2 0 0.1 0.1 0.2 0.2 0.3 0 0.1 0.1 0.1 0.1 0.2 0.1 0.1 0.1 0.2 0.2 0.3 0.1 0.1 0.1 0.1 0.2 0.2 0.1 0.1 0.1 0.2 0.2 0.3 0.1 0.1 0.1 0.1 0.2 0.2 0.1 0.1 0.2 0.1 0.3 0.2 0.1 0.1 0.1 0.1 0.2 0.2 0 0 0 0 0.1 0.1l49.3 32.9c0.8 0.5 1.7 0.8 2.6 0.8 0.9 0 1.8-0.3 2.6-0.8l49.4-32.9c0 0 0.1 0 0.1-0.1 0.1-0.1 0.1-0.1 0.2-0.2 0.1-0.1 0.2-0.1 0.3-0.2 0.1-0.1 0.1-0.1 0.2-0.2 0.1-0.1 0.2-0.2 0.2-0.3 0.1-0.1 0.1-0.1 0.2-0.2 0.1-0.1 0.1-0.2 0.2-0.3 0-0.1 0.1-0.1 0.1-0.2 0.1-0.1 0.1-0.2 0.2-0.3 0-0.1 0.1-0.1 0.1-0.2 0-0.1 0.1-0.2 0.1-0.3 0-0.1 0.1-0.1 0.1-0.2 0-0.1 0.1-0.3 0.1-0.4 0-0.1 0-0.1 0-0.2 0-0.2 0-0.4 0-0.6V37.5c0-0.2 0-0.4 0-0.6C107.9 36.9 107.9 36.8 107.9 36.7zM58.6 13.3L95 37.6 78.8 48.4 58.6 35V13.3zM49.4 13.3V35L29.2 48.4 13 37.6 49.4 13.3zM9.3 46.2L20.9 54 9.3 61.8V46.2zM49.4 94.7L13 70.4l16.2-10.9v0L49.4 73V94.7zM54 65L37.6 54 54 43l16.4 11L54 65zM58.6 94.7V73l20.1-13.5L95 70.4 58.6 94.7zM98.7 61.8L87.1 54l11.6-7.8V61.8z"/>
  </symbol>

  <symbol id="email" viewBox="0 0 108 78.3">
    <title>Email</title>
    <path d="M98.5 0h-89C4.3 0 0 4.3 0 9.5v59.3c0 5.2 4.3 9.5 9.5 9.5h89c5.2 0 9.5-4.3 9.5-9.5V9.5C108 4.3 103.7 0 98.5 0zM74.1 40.4l24.8-24.7v47.6L74.1 40.4zM54.3 47.3c-0.1 0.1-0.4 0.1-0.5 0L15.5 9.1h77.1L54.3 47.3zM40.2 46.7l7 7c1.8 1.8 4.2 2.8 6.7 2.8 2.5 0 4.9-1 6.7-2.8l6.9-6.9 24.2 22.3H15.9L40.2 46.7zM33.8 40.3L9.1 63V15.7L33.8 40.3z"/>
  </symbol>

  <symbol id="github" viewBox="0 0 108 91.6">
  <title>Github</title>
    <path d="M72.7 53.5c-4.2 0-7.6 4.7-7.6 10.6 0 5.8 3.4 10.6 7.6 10.6s7.6-4.7 7.6-10.6C80.3 58.2 76.9 53.5 72.7 53.5L72.7 53.5zM99.2 26c0.9-2.1 0.9-14.3-3.7-26 0 0-10.6 1.2-26.7 12.2 -3.4-0.9-9.1-1.4-14.8-1.4 -5.7 0-11.4 0.5-14.8 1.4C23.1 1.2 12.5 0 12.5 0 7.9 11.7 7.9 23.8 8.8 26 3.3 31.9 0 39 0 48.7c0 42.2 35 42.9 43.8 42.9 2 0 6 0 10.2 0 4.2 0 8.2 0 10.2 0 8.8 0 43.8-0.7 43.8-42.9C108 39 104.7 31.9 99.2 26L99.2 26zM54.2 86.4h-0.3c-22.1 0-39.4-2.6-39.4-24.2 0-5.2 1.8-9.9 6.1-13.9 7.2-6.6 19.4-3.1 33.2-3.1 0.1 0 0.1 0 0.2 0 0.1 0 0.1 0 0.2 0 13.8 0 26-3.5 33.2 3.1 4.3 4 6.1 8.8 6.1 13.9C93.5 83.7 76.3 86.4 54.2 86.4L54.2 86.4zM35.3 53.5c-4.2 0-7.6 4.7-7.6 10.6 0 5.8 3.4 10.6 7.6 10.6 4.2 0 7.6-4.7 7.6-10.6C43 58.2 39.6 53.5 35.3 53.5L35.3 53.5zM35.3 53.5"/>
  </symbol>

  <symbol id="linkedin" viewBox="0 0 108 107.8">
    <title>LinkedIn</title>
    <rect x="1.8" y="35.8" width="22.4" height="72"/><path d="M13 0C5.8 0 0 5.8 0 13s5.8 13 13 13c7.2 0 13-5.8 13-13S20.1 0 13 0z"/><path d="M81.2 34C70.3 34 63 40 60 45.6h-0.3v-9.8H38.2v72h22.4V72.2c0-9.4 1.8-18.5 13.4-18.5 11.5 0 11.6 10.7 11.6 19.1v35H108V68.3C108 48.9 103.8 34 81.2 34z"/>
  </symbol>


<symbol id="svcs-branding" viewBox="0 0 179.2 194.5">
    <title>Branding</title>
    <path fill="currentColor" d="M178.8 135L165.4 112l0-44.6c0-0.5-0.7-2.4-1.9-3l-76.3-44c-0.5-0.3-1.1-0.5-1.8-0.5 -21.5 0-41.4 8-55.7 22.2 -6.2 6.2-11.3 13.5-15 21.9V19.7c3.9-1.4 6.8-5.1 6.8-9.6C21.6 4.5 17.1 0 11.5 0 5.9 0 1.4 4.5 1.4 10.1c0 4.4 2.8 8.2 6.8 9.6v66.1H3.4c-1.9 0-3.4 1.5-3.4 3.4v16.2c0 1.9 1.5 3.4 3.4 3.4h4.7v66.1c-3.9 1.4-6.8 5.1-6.8 9.6 0 5.6 4.5 10.1 10.1 10.1 5.6 0 10.1-4.5 10.1-10.1 0-4.4-2.8-8.2-6.8-9.6v-44.2c4 9 9.5 16.8 16.3 23.2 13.4 12.7 31.4 20.1 51 20.8v4.8c0 1.9 1.5 3.4 3.4 3.4h16.2c1.9 0 3.4-1.5 3.4-3.4v-16.2c0-1.9-1.5-3.4-3.4-3.4H85.6c-1.9 0-3.4 1.5-3.4 3.4v4.7c-17.9-0.8-34.2-7.4-46.4-18.9 -10.5-10-17.9-23.6-20.2-40.2h4c1.9 0 3.4-1.5 3.4-3.4V89.1c0-1.9-1.5-3.4-3.4-3.4h-3.9c2.2-15.9 9.1-29.1 19-39 12.2-12.2 29.1-19.4 47.6-20.1l0 84.8c0 1.4 0.9 2.4 2 3.1l38.4 22.2 13.3 23.1c0.9 1.6 3 2.2 4.6 1.2l37-21.4C179.1 138.7 179.7 136.7 178.8 135zM89 166.6h9.5v9.5H89V166.6zM16.2 92.5v9.5H6.8v-9.5H16.2zM89 109.5l0-73.8 24.3 42c-2.6 2.5-4.1 5.9-4.1 9.7 0 7.5 6.1 13.5 13.5 13.5 7.5 0 13.5-6.1 13.5-13.5 0-7.5-6.1-13.5-13.5-13.5 -1.3 0-2.5 0.2-3.6 0.5l-24.3-42 63.9 36.9 0 41.7 -33.6 19.4L89 109.5zM115.9 87.4c0-3.7 3-6.8 6.8-6.8 3.7 0 6.8 3 6.8 6.8 0 3.7-3 6.8-6.8 6.8C119 94.2 115.9 91.2 115.9 87.4zM140.1 153.5l-10.4-18 31.2-18 10.4 18L140.1 153.5z"/><path d="M158.7 110.9l0-41.7L94.8 32.4l24.3 42c1.2-0.3 2.4-0.5 3.6-0.5 7.5 0 13.5 6.1 13.5 13.5 0 7.5-6.1 13.5-13.5 13.5 -7.5 0-13.5-6.1-13.5-13.5 0-3.7 1.5-7.2 4.1-9.7L89 35.7l0 73.8 36.1 20.8L158.7 110.9 158.7 110.9z"/>
  </symbol>

  <symbol id="svcs-design" viewBox="0 0 194.5 194.5">
  <title>Visual Design</title>
    <path fill="currentColor" d="M179.1 137.2c-0.2-0.7-0.5-1.3-1-1.8l-33.8-33.8 50.1-50.1L143.1 0 92.9 50.1 45.4 2.6c-1.4-1.4-3.8-1.4-5.2 0L2.6 40.2c-1.4 1.4-1.4 3.8 0 5.2l47.5 47.5L0 143.1l51.4 51.4 50.1-50.1 33.8 33.8c0.4 0.4 1 0.8 1.7 1l51.2 13.7c2.8 0.7 5.4-1.6 4.7-4.5L179.1 137.2zM105.5 48l9 9 5.2-5.2 -8.9-8.9 7.3-7.3 9 9 5.2-5.2 -9-9 7.3-7.3 20.5 20.5 5.2-5.2 -20.5-20.5 7.3-7.3 41 41 -44.9 44.9 -41-41L105.5 48zM42.8 10.4l129.4 129.4 1.3 4.8 -11.1 0L35.5 17.7 42.8 10.4zM51.4 184.1l-41-41 7.3-7.3 9 9 5.2-5.2 -9-9 7.3-7.3 9 9 5.2-5.2 -9-9 7.3-7.3 9 9 5.2-5.2 -9-9 7.3-7.3 41 41L51.4 184.1zM144.6 173.5l-4.7-1.3L10.4 42.8l7.3-7.3 126.9 126.9V173.5zM22.9 30.3l7.3-7.3 128.3 128.3v7.4l-7.3 0L22.9 30.3zM173.3 181.2l-21.3-5.7V166l10.3 0c2 0 3.7-1.6 3.7-3.7V152l9.6 0 5.7 21.3L173.3 181.2z"/><path d="M162.4 144.6L35.5 17.7l7.3-7.3 129.4 129.4 1.3 4.8L162.4 144.6 162.4 144.6zM30.3 22.9l128.3 128.3v7.4l-7.3 0L22.9 30.3 30.3 22.9 30.3 22.9zM17.7 35.5l126.9 126.9v11.2l-4.7-1.3L10.4 42.8 17.7 35.5 17.7 35.5z"/>
  </symbol>

<symbol id="svcs-dev" viewBox="0 0 200 194.5">
    <title>Web Development</title>
    <path d="M180.2 7.9H19.8c-2 0-11.9 0.7-11.9 11.9v28.3h184.3V19.8C192.1 17.8 191.4 7.9 180.2 7.9zM26.1 34.5c-3.6 0-6.5-2.9-6.5-6.5 0-3.6 2.9-6.5 6.5-6.5 3.6 0 6.5 2.9 6.5 6.5C32.6 31.6 29.7 34.5 26.1 34.5zM48.6 34.5c-3.6 0-6.5-2.9-6.5-6.5 0-3.6 2.9-6.5 6.5-6.5 3.6 0 6.5 2.9 6.5 6.5C55.2 31.6 52.2 34.5 48.6 34.5zM71.2 34.5c-3.6 0-6.5-2.9-6.5-6.5 0-3.6 2.9-6.5 6.5-6.5 3.6 0 6.5 2.9 6.5 6.5C77.7 31.6 74.8 34.5 71.2 34.5z"/><path fill="currentColor" d="M48.6 21.4c-3.6 0-6.5 2.9-6.5 6.5 0 3.6 2.9 6.5 6.5 6.5 3.6 0 6.5-2.9 6.5-6.5C55.2 24.4 52.2 21.4 48.6 21.4z"/><path fill="currentColor" d="M71.2 21.4c-3.6 0-6.5 2.9-6.5 6.5 0 3.6 2.9 6.5 6.5 6.5 3.6 0 6.5-2.9 6.5-6.5C77.7 24.4 74.8 21.4 71.2 21.4z"/><path fill="currentColor" d="M26.1 21.4c-3.6 0-6.5 2.9-6.5 6.5 0 3.6 2.9 6.5 6.5 6.5 3.6 0 6.5-2.9 6.5-6.5C32.6 24.4 29.7 21.4 26.1 21.4z"/><rect fill="none" width="200" height="194.5"/><polygon points="38.2 126.8 76.6 143.3 76.6 130.4 55.5 121.4 76.6 112.3 76.6 99.5 38.2 116 "/><polygon points="123.4 99.5 123.4 112.3 144.5 121.4 123.4 130.4 123.4 143.3 161.8 126.8 161.8 116 "/><polygon points="87.6 149.3 99.8 149.3 112.8 93.4 100.7 93.4 "/><path fill="currentColor" d="M180.2 0H19.8C13 0 0 4.2 0 19.8v154.9c0 6.8 4.1 19.7 19.7 19.7h160.4c6.8 0 19.7-4.1 19.7-19.7V19.8C200 13 195.8 0 180.2 0zM19.8 7.9h160.4c11.2 0 11.9 10 11.9 11.9v28.3H7.9V19.8C7.9 8.6 17.8 7.9 19.8 7.9zM180.2 186.6H19.8c-11.2 0-11.9-9.9-11.9-11.9V55.9h184.3v118.8C192.1 185.9 182.2 186.6 180.2 186.6z"/>
  </symbol>

  <symbol id="svcs-responsive" viewBox="0 0 242.6 194.5">
    <title>Responsive Design</title>
    <polygon points="25 159.8 83.2 159.8 83.2 75.7 47.5 75.7 "/><polygon points="145.6 7.5 109.4 142.4 235.1 142.4 235.1 7.5 "/><path fill="currentColor" d="M52.4 54.6H38.3c-2.1 0-3.7 1.7-3.7 3.7 0 2.1 1.7 3.7 3.7 3.7h14.1c2.1 0 3.7-1.7 3.7-3.7C56.1 56.3 54.5 54.6 52.4 54.6z"/><circle fill="currentColor" cx="65.4" cy="58.3" r="3.7"/><path fill="currentColor" d="M238.9 0H45.3c-2.1 0-3.7 1.7-3.7 3.7V41H19.5C7.7 41 0 48.6 0 60.5V175c0 11.7 7.8 19.5 19.5 19.5h51.7c11.9 0 19.5-7.7 19.5-19.5v-25.2h37.6V187h-17.7c-2.1 0-3.7 1.7-3.7 3.7 0 2.1 1.7 3.7 3.7 3.7h63c2.1 0 3.7-1.7 3.7-3.7 0-2.1-1.7-3.7-3.7-3.7h-17.7v-37.2h82.9c2.1 0 3.7-1.7 3.7-3.7V3.7C242.6 1.7 240.9 0 238.9 0zM83.2 175c0 7.7-4.4 12-12 12H19.5c-7.7 0-12-4.4-12-12v-7.7h75.8V175zM83.2 159.8H25 7.5V75.7h40 35.7V159.8zM83.2 68.2H7.5v-7.7c0-7.6 4.4-12 12-12h51.7c7.7 0 12 4.4 12 12V68.2zM148.5 187.1h-12.7v-37.2h12.7V187.1zM235.1 142.4H109.4 90.7V60.5c0-11.7-7.8-19.5-19.5-19.5H49.1V7.5h96.5 89.6V142.4z"/><circle fill="currentColor" cx="45.3" cy="177.2" r="3.7"/>
  </symbol>

</svg>